<?xml version="1.0" encoding="UTF-8" standalone="no"?>
<!-- Created with Inkscape (http://www.inkscape.org/) -->

<svg
   xmlns:dc="http://purl.org/dc/elements/1.1/"
   xmlns:cc="http://creativecommons.org/ns#"
   xmlns:rdf="http://www.w3.org/1999/02/22-rdf-syntax-ns#"
   xmlns:svg="http://www.w3.org/2000/svg"
   xmlns="http://www.w3.org/2000/svg"
   version="1.1"
   viewBox="0 0 750 300"
   id="svg3289">
  <defs
     id="defs3291" />
  <metadata
     id="metadata3294">
    <rdf:RDF>
      <cc:Work
         rdf:about="">
        <dc:format>image/svg+xml</dc:format>
        <dc:type
           rdf:resource="http://purl.org/dc/dcmitype/StillImage" />
        <dc:title></dc:title>
      </cc:Work>
    </rdf:RDF>
  </metadata>
  <g
     id="layer1">
    <g
       transform="matrix(0.03543307,0,0,0.03543307,18.299226,-198.6828)"
       id="_318430728"
       style="fill:#f6f6f6;fill-opacity:1;fill-rule:evenodd;stroke:none">
      <g
         id="g3241"
         style="fill:#1189d9;fill-opacity:1;stroke:none">
        <polygon
           points="14206,8093 14953,11437 13831,12496 12724,11430 13453,8093 "
           id="polygon3243"
           style="fill:#1189d9;fill-opacity:1;stroke:none" />
        <polygon
           points="13456,7840 13085,7223 13620,6996 14053,6998 14587,7227 14201,7842 "
           id="polygon3245"
           style="fill:#1189d9;fill-opacity:1;stroke:none" />
        <line
           class="fil1 str0"
           x1="13084"
           y1="7228"
           x2="14588"
           y2="7228"
           id="line3247"
           style="fill:#1189d9;fill-opacity:1;stroke:none" />
      </g>
      <path
         d="m 1937,9872 0,-1790 318,0 0,253 c 40,-110 150,-190 329,-240 93,-27 191,-40 292,-39 l -10,272 c -153,0 -293,31 -420,91 -127,61 -191,127 -191,199 l 0,1253 -318,0 z m 1998,-206 c 240,0 360,-90 360,-269 0,-78 -11,-135 -32,-174 -21,-37 -72,-71 -150,-100 l -426,-157 c -131,-46 -221,-101 -273,-165 -51,-63 -77,-144 -77,-239 0,-96 9,-172 28,-230 20,-58 51,-109 95,-153 88,-88 246,-131 473,-131 227,0 423,33 588,98 l -73,243 c -57,-24 -133,-46 -226,-67 -93,-21 -175,-31 -245,-31 -161,0 -263,26 -306,78 -26,32 -39,80 -39,144 0,63 10,108 31,134 21,27 62,51 123,72 l 420,165 c 146,58 243,121 289,190 46,69 69,178 69,327 0,148 -48,270 -144,366 -96,95 -243,142 -444,142 -146,0 -277,-16 -390,-47 -114,-31 -201,-64 -262,-98 l 78,-233 c 161,90 338,135 532,135 z m 1261,895 0,-2479 250,0 37,135 c 52,-46 123,-86 213,-119 90,-33 184,-50 280,-50 222,0 391,54 506,162 115,108 173,252 173,431 l 0,650 c 0,185 -63,334 -189,448 -126,114 -303,170 -530,170 -157,0 -298,-31 -422,-95 l 0,747 -318,0 z m 318,-991 c 114,64 241,96 382,96 141,0 250,-30 327,-90 77,-59 115,-144 115,-251 l 0,-710 c 0,-103 -37,-183 -114,-240 -76,-56 -169,-84 -279,-84 -110,0 -203,22 -280,67 -77,45 -127,85 -151,122 l 0,1090 z m 2508,339 c -262,0 -453,-54 -570,-164 -117,-109 -175,-277 -175,-505 l 0,-623 c 0,-176 60,-316 180,-417 121,-101 303,-152 547,-152 244,0 425,47 544,141 119,94 178,228 178,402 l 0,426 -1132,0 0,251 c 0,149 30,252 90,310 59,58 167,87 322,87 156,0 243,-3 263,-10 20,-7 42,-14 63,-24 21,-9 36,-20 44,-32 9,-12 20,-31 34,-57 14,-25 24,-74 31,-148 l 280,0 c -11,107 -30,193 -57,258 -27,65 -68,118 -125,156 -57,39 -125,65 -205,78 -80,14 -184,20 -315,20 z m -428,-1106 824,0 0,-245 c 0,-101 -35,-171 -104,-210 -69,-38 -171,-57 -305,-57 -134,0 -237,23 -308,69 -72,46 -107,122 -107,228 l 0,215 z m 2488,1106 c -366,0 -595,-127 -687,-382 -27,-72 -40,-150 -40,-236 l 0,-682 c 0,-170 65,-306 194,-408 129,-102 304,-153 525,-153 281,0 475,61 581,182 83,95 125,235 125,419 l -302,29 c 0,-160 -28,-265 -85,-314 -57,-49 -158,-73 -303,-73 -145,0 -251,25 -318,76 -66,50 -100,134 -100,250 l 0,701 c 0,124 35,213 105,267 70,54 178,81 323,81 146,0 243,-20 292,-58 49,-38 79,-125 91,-260 l 293,0 c -18,207 -77,352 -179,436 -101,83 -273,125 -515,125 z m 2160,-24 c -250,0 -430,-39 -541,-118 -111,-78 -167,-214 -167,-407 l 0,-1039 -299,0 0,-239 311,0 39,-554 267,0 0,554 449,0 0,239 -449,0 0,1019 c 0,112 32,187 97,224 65,37 178,55 339,55 l 35,0 -33,267 -48,0 z"
         id="path3249"
         style="fill:#333333;fill-opacity:1;fill-rule:nonzero;stroke:none" />
      <path
         d="m 15631,9889 -694,-1790 319,0 539,1452 480,-1452 311,0 -634,1790 -321,0 z m 2144,37 c -262,0 -453,-54 -570,-164 -117,-109 -175,-277 -175,-505 l 0,-623 c 0,-176 60,-316 180,-417 121,-101 303,-152 547,-152 244,0 425,47 544,141 119,94 178,228 178,402 l 0,426 -1132,0 0,251 c 0,149 30,252 90,310 59,58 167,87 322,87 156,0 243,-3 263,-10 20,-7 42,-14 63,-24 21,-9 36,-20 44,-32 9,-12 20,-31 34,-57 14,-25 24,-74 31,-148 l 280,0 c -11,107 -30,193 -57,258 -27,65 -68,118 -125,156 -57,39 -125,65 -205,78 -80,14 -184,20 -315,20 z m -428,-1106 824,0 0,-245 c 0,-101 -35,-171 -104,-210 -69,-38 -171,-57 -305,-57 -134,0 -237,23 -308,69 -72,46 -107,122 -107,228 l 0,215 z"
         id="path3251"
         style="fill:#333333;fill-opacity:1;fill-rule:nonzero;stroke:none" />
    </g>
  </g>
</svg>
